<svg width="255" height="48" viewBox="0 0 255 48" fill="none" xmlns="http://www.w3.org/2000/svg">
<path d="M55.1341 23.736C55.1341 21.5173 55.6141 19.544 56.5741 17.816C57.5341 16.0667 58.8675 14.712 60.5741 13.752C62.3021 12.7707 64.2541 12.28 66.4301 12.28C69.0968 12.28 71.3795 12.984 73.2781 14.392C75.1768 15.8 76.4461 17.72 77.0861 20.152H71.0701C70.6221 19.2133 69.9821 18.4987 69.1501 18.008C68.3395 17.5173 67.4115 17.272 66.3661 17.272C64.6808 17.272 63.3155 17.8587 62.2701 19.032C61.2248 20.2053 60.7021 21.7733 60.7021 23.736C60.7021 25.6987 61.2248 27.2667 62.2701 28.44C63.3155 29.6133 64.6808 30.2 66.3661 30.2C67.4115 30.2 68.3395 29.9547 69.1501 29.464C69.9821 28.9733 70.6221 28.2587 71.0701 27.32H77.0861C76.4461 29.752 75.1768 31.672 73.2781 33.08C71.3795 34.4667 69.0968 35.16 66.4301 35.16C64.2541 35.16 62.3021 34.68 60.5741 33.72C58.8675 32.7387 57.5341 31.384 56.5741 29.656C55.6141 27.928 55.1341 25.9547 55.1341 23.736ZM91.4131 16.952C93.4611 16.952 95.1038 17.6347 96.3411 19C97.5785 20.344 98.1971 22.2 98.1971 24.568V35H92.7571V25.304C92.7571 24.1093 92.4478 23.1813 91.8291 22.52C91.2105 21.8587 90.3785 21.528 89.3331 21.528C88.2878 21.528 87.4558 21.8587 86.8371 22.52C86.2185 23.1813 85.9091 24.1093 85.9091 25.304V35H80.4371V11.32H85.9091V19.544C86.4638 18.7547 87.2211 18.1253 88.1811 17.656C89.1411 17.1867 90.2185 16.952 91.4131 16.952ZM118.832 25.784C118.832 26.296 118.8 26.8293 118.736 27.384H106.352C106.437 28.4933 106.789 29.3467 107.408 29.944C108.048 30.52 108.826 30.808 109.744 30.808C111.109 30.808 112.058 30.232 112.592 29.08H118.416C118.117 30.2533 117.573 31.3093 116.784 32.248C116.016 33.1867 115.045 33.9227 113.872 34.456C112.698 34.9893 111.386 35.256 109.936 35.256C108.186 35.256 106.629 34.8827 105.264 34.136C103.898 33.3893 102.832 32.3227 102.064 30.936C101.296 29.5493 100.912 27.928 100.912 26.072C100.912 24.216 101.285 22.5947 102.032 21.208C102.8 19.8213 103.866 18.7547 105.232 18.008C106.597 17.2613 108.165 16.888 109.936 16.888C111.664 16.888 113.2 17.2507 114.544 17.976C115.888 18.7013 116.933 19.736 117.68 21.08C118.448 22.424 118.832 23.992 118.832 25.784ZM113.232 24.344C113.232 23.4053 112.912 22.6587 112.272 22.104C111.632 21.5493 110.832 21.272 109.872 21.272C108.954 21.272 108.176 21.5387 107.536 22.072C106.917 22.6053 106.533 23.3627 106.384 24.344H113.232ZM120.63 26.04C120.63 24.2053 120.972 22.5947 121.654 21.208C122.358 19.8213 123.308 18.7547 124.502 18.008C125.697 17.2613 127.03 16.888 128.502 16.888C129.761 16.888 130.86 17.144 131.798 17.656C132.758 18.168 133.494 18.84 134.006 19.672V17.144H139.478V35H134.006V32.472C133.473 33.304 132.726 33.976 131.766 34.488C130.828 35 129.729 35.256 128.47 35.256C127.02 35.256 125.697 34.8827 124.502 34.136C123.308 33.368 122.358 32.2907 121.654 30.904C120.972 29.496 120.63 27.8747 120.63 26.04ZM134.006 26.072C134.006 24.7067 133.622 23.6293 132.854 22.84C132.108 22.0507 131.19 21.656 130.102 21.656C129.014 21.656 128.086 22.0507 127.318 22.84C126.572 23.608 126.198 24.6747 126.198 26.04C126.198 27.4053 126.572 28.4933 127.318 29.304C128.086 30.0933 129.014 30.488 130.102 30.488C131.19 30.488 132.108 30.0933 132.854 29.304C133.622 28.5147 134.006 27.4373 134.006 26.072ZM153.389 30.36V35H150.605C148.621 35 147.074 34.52 145.965 33.56C144.856 32.5787 144.301 30.9893 144.301 28.792V21.688H142.125V17.144H144.301V12.792H149.773V17.144H153.357V21.688H149.773V28.856C149.773 29.3893 149.901 29.7733 150.157 30.008C150.413 30.2427 150.84 30.36 151.437 30.36H153.389ZM171.346 35.224C169.704 35.224 168.232 34.9573 166.93 34.424C165.629 33.8907 164.584 33.1013 163.794 32.056C163.026 31.0107 162.621 29.752 162.578 28.28H168.402C168.488 29.112 168.776 29.752 169.266 30.2C169.757 30.6267 170.397 30.84 171.186 30.84C171.997 30.84 172.637 30.6587 173.106 30.296C173.576 29.912 173.81 29.3893 173.81 28.728C173.81 28.1733 173.618 27.7147 173.234 27.352C172.872 26.9893 172.413 26.6907 171.858 26.456C171.325 26.2213 170.557 25.9547 169.554 25.656C168.104 25.208 166.92 24.76 166.002 24.312C165.085 23.864 164.296 23.2027 163.634 22.328C162.973 21.4533 162.642 20.312 162.642 18.904C162.642 16.8133 163.4 15.1813 164.914 14.008C166.429 12.8133 168.402 12.216 170.834 12.216C173.309 12.216 175.304 12.8133 176.818 14.008C178.333 15.1813 179.144 16.824 179.25 18.936H173.33C173.288 18.2107 173.021 17.6453 172.53 17.24C172.04 16.8133 171.41 16.6 170.642 16.6C169.981 16.6 169.448 16.7813 169.042 17.144C168.637 17.4853 168.434 17.9867 168.434 18.648C168.434 19.3733 168.776 19.9387 169.458 20.344C170.141 20.7493 171.208 21.1867 172.658 21.656C174.109 22.1467 175.282 22.616 176.178 23.064C177.096 23.512 177.885 24.1627 178.546 25.016C179.208 25.8693 179.538 26.968 179.538 28.312C179.538 29.592 179.208 30.7547 178.546 31.8C177.906 32.8453 176.968 33.6773 175.73 34.296C174.493 34.9147 173.032 35.224 171.346 35.224ZM193.882 16.952C195.93 16.952 197.573 17.6347 198.81 19C200.047 20.344 200.666 22.2 200.666 24.568V35H195.226V25.304C195.226 24.1093 194.917 23.1813 194.298 22.52C193.679 21.8587 192.847 21.528 191.802 21.528C190.757 21.528 189.925 21.8587 189.306 22.52C188.687 23.1813 188.378 24.1093 188.378 25.304V35H182.906V11.32H188.378V19.544C188.933 18.7547 189.69 18.1253 190.65 17.656C191.61 17.1867 192.687 16.952 193.882 16.952ZM221.3 25.784C221.3 26.296 221.268 26.8293 221.204 27.384H208.82C208.906 28.4933 209.258 29.3467 209.876 29.944C210.516 30.52 211.295 30.808 212.212 30.808C213.578 30.808 214.527 30.232 215.06 29.08H220.884C220.586 30.2533 220.042 31.3093 219.252 32.248C218.484 33.1867 217.514 33.9227 216.34 34.456C215.167 34.9893 213.855 35.256 212.404 35.256C210.655 35.256 209.098 34.8827 207.732 34.136C206.367 33.3893 205.3 32.3227 204.532 30.936C203.764 29.5493 203.38 27.928 203.38 26.072C203.38 24.216 203.754 22.5947 204.5 21.208C205.268 19.8213 206.335 18.7547 207.7 18.008C209.066 17.2613 210.634 16.888 212.404 16.888C214.132 16.888 215.668 17.2507 217.012 17.976C218.356 18.7013 219.402 19.736 220.148 21.08C220.916 22.424 221.3 23.992 221.3 25.784ZM215.7 24.344C215.7 23.4053 215.38 22.6587 214.74 22.104C214.1 21.5493 213.3 21.272 212.34 21.272C211.423 21.272 210.644 21.5387 210.004 22.072C209.386 22.6053 209.002 23.3627 208.852 24.344H215.7ZM241.019 25.784C241.019 26.296 240.987 26.8293 240.923 27.384H228.539C228.624 28.4933 228.976 29.3467 229.595 29.944C230.235 30.52 231.014 30.808 231.931 30.808C233.296 30.808 234.246 30.232 234.779 29.08H240.603C240.304 30.2533 239.76 31.3093 238.971 32.248C238.203 33.1867 237.232 33.9227 236.059 34.456C234.886 34.9893 233.574 35.256 232.123 35.256C230.374 35.256 228.816 34.8827 227.451 34.136C226.086 33.3893 225.019 32.3227 224.251 30.936C223.483 29.5493 223.099 27.928 223.099 26.072C223.099 24.216 223.472 22.5947 224.219 21.208C224.987 19.8213 226.054 18.7547 227.419 18.008C228.784 17.2613 230.352 16.888 232.123 16.888C233.851 16.888 235.387 17.2507 236.731 17.976C238.075 18.7013 239.12 19.736 239.867 21.08C240.635 22.424 241.019 23.992 241.019 25.784ZM235.419 24.344C235.419 23.4053 235.099 22.6587 234.459 22.104C233.819 21.5493 233.019 21.272 232.059 21.272C231.142 21.272 230.363 21.5387 229.723 22.072C229.104 22.6053 228.72 23.3627 228.571 24.344H235.419ZM253.858 30.36V35H251.074C249.09 35 247.543 34.52 246.434 33.56C245.325 32.5787 244.77 30.9893 244.77 28.792V21.688H242.594V17.144H244.77V12.792H250.242V17.144H253.826V21.688H250.242V28.856C250.242 29.3893 250.37 29.7733 250.626 30.008C250.882 30.2427 251.309 30.36 251.906 30.36H253.858Z" fill="#2F2D2A"/>
<rect x="2" y="4" width="41" height="41" rx="6" fill="white" stroke="#2F2D2A" stroke-width="4"/>
<rect x="10" y="12" width="25" height="4" fill="#2F2D2A"/>
<rect x="10" y="22" width="20" height="4" fill="#2F2D2A"/>
<rect x="10" y="32" width="15" height="4" fill="#2F2D2A"/>
</svg>
