<svg width="45" height="45" viewBox="0 0 45 45" fill="none" xmlns="http://www.w3.org/2000/svg">
<rect x="2" y="2" width="41" height="41" rx="6" fill="white" stroke="#2F2D2A" stroke-width="4"/>
<path d="M6.26856 17.552C6.26856 15.888 6.62856 14.408 7.34856 13.112C8.06856 11.8 9.06856 10.784 10.3486 10.064C11.6446 9.328 13.1086 8.96 14.7406 8.96C16.7406 8.96 18.4526 9.488 19.8766 10.544C21.3006 11.6 22.2526 13.04 22.7326 14.864H18.2206C17.8846 14.16 17.4046 13.624 16.7806 13.256C16.1726 12.888 15.4766 12.704 14.6926 12.704C13.4286 12.704 12.4046 13.144 11.6206 14.024C10.8366 14.904 10.4446 16.08 10.4446 17.552C10.4446 19.024 10.8366 20.2 11.6206 21.08C12.4046 21.96 13.4286 22.4 14.6926 22.4C15.4766 22.4 16.1726 22.216 16.7806 21.848C17.4046 21.48 17.8846 20.944 18.2206 20.24H22.7326C22.2526 22.064 21.3006 23.504 19.8766 24.56C18.4526 25.6 16.7406 26.12 14.7406 26.12C13.1086 26.12 11.6446 25.76 10.3486 25.04C9.06856 24.304 8.06856 23.288 7.34856 21.992C6.62856 20.696 6.26856 19.216 6.26856 17.552ZM31.3418 26.168C30.1098 26.168 29.0058 25.968 28.0298 25.568C27.0538 25.168 26.2698 24.576 25.6778 23.792C25.1018 23.008 24.7978 22.064 24.7658 20.96H29.1338C29.1978 21.584 29.4138 22.064 29.7818 22.4C30.1498 22.72 30.6298 22.88 31.2218 22.88C31.8298 22.88 32.3098 22.744 32.6618 22.472C33.0138 22.184 33.1898 21.792 33.1898 21.296C33.1898 20.88 33.0458 20.536 32.7578 20.264C32.4858 19.992 32.1418 19.768 31.7258 19.592C31.3258 19.416 30.7498 19.216 29.9978 18.992C28.9098 18.656 28.0218 18.32 27.3338 17.984C26.6458 17.648 26.0538 17.152 25.5578 16.496C25.0618 15.84 24.8138 14.984 24.8138 13.928C24.8138 12.36 25.3818 11.136 26.5178 10.256C27.6538 9.36 29.1338 8.912 30.9578 8.912C32.8138 8.912 34.3098 9.36 35.4458 10.256C36.5818 11.136 37.1898 12.368 37.2698 13.952H32.8298C32.7978 13.408 32.5978 12.984 32.2298 12.68C31.8618 12.36 31.3898 12.2 30.8138 12.2C30.3178 12.2 29.9178 12.336 29.6138 12.608C29.3098 12.864 29.1578 13.24 29.1578 13.736C29.1578 14.28 29.4138 14.704 29.9258 15.008C30.4378 15.312 31.2378 15.64 32.3258 15.992C33.4138 16.36 34.2938 16.712 34.9658 17.048C35.6538 17.384 36.2458 17.872 36.7418 18.512C37.2378 19.152 37.4858 19.976 37.4858 20.984C37.4858 21.944 37.2378 22.816 36.7418 23.6C36.2618 24.384 35.5578 25.008 34.6298 25.472C33.7018 25.936 32.6058 26.168 31.3418 26.168Z" fill="#2F2D2A"/>
</svg>
